<svg width="36" height="22" viewBox="0 0 36 22" fill="none" xmlns="http://www.w3.org/2000/svg">
<g clip-path="url(#clip0_11_477)">
<path d="M10.0177 8.19522C10.0177 8.61708 10.0635 8.95912 10.1437 9.20996C10.2353 9.46079 10.3499 9.73443 10.5102 10.0309C10.5675 10.1221 10.5904 10.2133 10.5904 10.2931C10.5904 10.4071 10.5217 10.5211 10.3728 10.6352L9.65119 11.114C9.5481 11.1824 9.44502 11.2166 9.35339 11.2166C9.23885 11.2166 9.12432 11.1596 9.00978 11.057C8.84943 10.886 8.71198 10.7036 8.59745 10.5211C8.48291 10.3273 8.36837 10.1107 8.24238 9.84844C7.349 10.8974 6.22654 11.4219 4.875 11.4219C3.91289 11.4219 3.1455 11.1482 2.58427 10.6009C2.02304 10.0537 1.73669 9.32397 1.73669 8.41185C1.73669 7.44272 2.0803 6.65601 2.77898 6.06313C3.47765 5.47025 4.4054 5.17381 5.58513 5.17381C5.97456 5.17381 6.37543 5.20801 6.79922 5.26502C7.22301 5.32203 7.65825 5.41324 8.11639 5.51585V4.68354C8.11639 3.81702 7.93313 3.21274 7.57807 2.85929C7.21155 2.50584 6.59305 2.33482 5.71112 2.33482C5.31024 2.33482 4.89791 2.38042 4.47412 2.48304C4.05034 2.58565 3.63801 2.71107 3.23713 2.87069C3.05387 2.9505 2.91642 2.99611 2.83625 3.01891C2.75607 3.04171 2.6988 3.05311 2.65299 3.05311C2.49264 3.05311 2.41246 2.9391 2.41246 2.69967V2.14099C2.41246 1.95857 2.43537 1.82175 2.49264 1.74194C2.54991 1.66212 2.65299 1.58231 2.81334 1.5025C3.21422 1.29727 3.69527 1.12625 4.2565 0.989433C4.81773 0.841212 5.41332 0.772803 6.04328 0.772803C7.40626 0.772803 8.40274 1.08065 9.04414 1.69633C9.67409 2.31201 9.9948 3.24694 9.9948 4.50111V8.19522H10.0177ZM5.36751 9.92826C5.74548 9.92826 6.13491 9.85985 6.54724 9.72303C6.95957 9.58621 7.32609 9.33537 7.63534 8.99333C7.8186 8.7767 7.95604 8.53726 8.02476 8.26363C8.09349 7.98999 8.1393 7.65934 8.1393 7.27169V6.79283C7.80714 6.71302 7.45208 6.64461 7.08556 6.599C6.71904 6.55339 6.36398 6.53059 6.00892 6.53059C5.24152 6.53059 4.68029 6.67881 4.30232 6.98665C3.92435 7.29449 3.74109 7.72775 3.74109 8.29783C3.74109 8.83371 3.87853 9.23276 4.16487 9.5064C4.43976 9.79144 4.84064 9.92826 5.36751 9.92826ZM14.5648 11.1596C14.3586 11.1596 14.2212 11.1254 14.1296 11.0456C14.0379 10.9772 13.9578 10.8176 13.889 10.6009L11.1974 1.78754C11.1287 1.55951 11.0943 1.41129 11.0943 1.33148C11.0943 1.14905 11.186 1.04644 11.3692 1.04644H12.4917C12.7093 1.04644 12.8582 1.08065 12.9384 1.16046C13.03 1.22887 13.0987 1.38849 13.1675 1.60512L15.0917 9.15295L16.8785 1.60512C16.9357 1.37709 17.0044 1.22887 17.0961 1.16046C17.1877 1.09205 17.3481 1.04644 17.5542 1.04644H18.4705C18.6881 1.04644 18.837 1.08065 18.9287 1.16046C19.0203 1.22887 19.1005 1.38849 19.1463 1.60512L20.956 9.24416L22.9375 1.60512C23.0062 1.37709 23.0863 1.22887 23.1665 1.16046C23.2582 1.09205 23.4071 1.04644 23.6132 1.04644H24.6784C24.8617 1.04644 24.9648 1.13765 24.9648 1.33148C24.9648 1.38849 24.9533 1.4455 24.9418 1.5139C24.9304 1.58231 24.9075 1.67353 24.8617 1.79894L22.1013 10.6123C22.0326 10.8404 21.9524 10.9886 21.8608 11.057C21.7692 11.1254 21.6203 11.171 21.4256 11.171H20.4405C20.2229 11.171 20.074 11.1368 19.9824 11.057C19.8908 10.9772 19.8106 10.829 19.7648 10.6009L17.9895 3.24694L16.2256 10.5895C16.1683 10.8176 16.0996 10.9658 16.008 11.0456C15.9163 11.1254 15.756 11.1596 15.5498 11.1596H14.5648ZM29.2828 11.4675C28.6872 11.4675 28.0916 11.3991 27.5189 11.2622C26.9462 11.1254 26.4995 10.9772 26.2017 10.8062C26.0185 10.7036 25.8925 10.5895 25.8467 10.4869C25.8009 10.3843 25.778 10.2703 25.778 10.1677V9.58621C25.778 9.34678 25.8696 9.23276 26.0414 9.23276C26.1101 9.23276 26.1788 9.24416 26.2476 9.26696C26.3163 9.28977 26.4194 9.33537 26.5339 9.38098C26.9233 9.552 27.3471 9.68882 27.7938 9.78004C28.252 9.87125 28.6987 9.91685 29.1568 9.91685C29.8784 9.91685 30.4396 9.79144 30.829 9.5406C31.2185 9.28977 31.4246 8.92492 31.4246 8.45745C31.4246 8.13821 31.3215 7.87597 31.1154 7.65934C30.9092 7.44272 30.5198 7.24889 29.9586 7.06646L28.2978 6.55339C27.4617 6.29116 26.8432 5.9035 26.4652 5.39043C26.0872 4.88877 25.8925 4.33009 25.8925 3.73721C25.8925 3.25834 25.9956 2.83649 26.2017 2.47164C26.4079 2.10679 26.6828 1.78754 27.0264 1.53671C27.37 1.27447 27.7595 1.08065 28.2176 0.943826C28.6757 0.807008 29.1568 0.75 29.6608 0.75C29.9127 0.75 30.1762 0.761402 30.4282 0.795606C30.6916 0.829811 30.9321 0.875417 31.1726 0.921023C31.4017 0.978031 31.6193 1.03504 31.8255 1.10345C32.0317 1.17186 32.192 1.24027 32.3066 1.30868C32.4669 1.39989 32.5814 1.4911 32.6502 1.59372C32.7189 1.68493 32.7533 1.81034 32.7533 1.96997V2.50584C32.7533 2.74527 32.6616 2.87069 32.4898 2.87069C32.3982 2.87069 32.2493 2.82508 32.0546 2.73387C31.4017 2.43743 30.6687 2.28921 29.8555 2.28921C29.2026 2.28921 28.6872 2.39182 28.3321 2.60845C27.9771 2.82508 27.7938 3.15573 27.7938 3.62319C27.7938 3.94244 27.9083 4.21607 28.1374 4.4327C28.3665 4.64933 28.7903 4.86596 29.3973 5.05979L31.0237 5.57286C31.8484 5.8351 32.444 6.19995 32.7991 6.66741C33.1541 7.13487 33.3259 7.67075 33.3259 8.26363C33.3259 8.75389 33.2229 9.19855 33.0281 9.58621C32.822 9.97386 32.5471 10.3159 32.192 10.5895C31.837 10.8746 31.4132 11.0798 30.9207 11.228C30.4053 11.3877 29.8669 11.4675 29.2828 11.4675Z" fill="white"/>
<path fill-rule="evenodd" clip-rule="evenodd" d="M31.4476 17.0086C27.6793 19.7792 22.2045 21.25 17.497 21.25C10.8997 21.25 4.95521 18.8215 0.46537 14.7853C0.110306 14.4661 0.431009 14.0328 0.854795 14.2836C5.71115 17.0884 11.7014 18.7873 17.8979 18.7873C22.0785 18.7873 26.6714 17.9207 30.8978 16.1421C31.5278 15.8571 32.0661 16.5525 31.4476 17.0086Z" fill="#FF9900"/>
<path fill-rule="evenodd" clip-rule="evenodd" d="M33.0167 15.23C32.5357 14.6143 29.8326 14.9335 28.607 15.0818C28.2405 15.1274 28.1833 14.8081 28.5154 14.5687C30.6687 13.0637 34.2079 13.4969 34.6202 13.9986C35.0326 14.5117 34.5057 18.0348 32.4898 19.7222C32.1806 19.9844 31.8828 19.8476 32.0202 19.5056C32.4784 18.3768 33.4978 15.8343 33.0167 15.23Z" fill="#FF9900"/>
</g>
<defs>
<clipPath id="clip0_11_477">
<rect width="35.1429" height="20.5" fill="white" transform="translate(0 0.75)"/>
</clipPath>
</defs>
</svg>
