<svg width="24" height="30" viewBox="0 0 24 30" fill="none" xmlns="http://www.w3.org/2000/svg">
<g clip-path="url(#clip0_10_347)">
<path d="M10.5793 0H15.4822V22.4716C12.9708 22.9466 11.122 23.1335 9.12171 23.1335C3.13351 23.1273 0.0163574 20.452 0.0163574 15.314C0.0163574 10.3635 3.32281 7.1507 8.44654 7.1507C9.2416 7.1507 9.84736 7.21321 10.5793 7.40072V0ZM10.7512 11.4503C10.1769 11.2628 9.70369 11.2003 9.09793 11.2003C6.61809 11.2003 5.18572 12.7129 5.18572 15.3638C5.18572 17.9447 6.55499 19.3698 9.06638 19.3698C9.60904 19.3698 10.0507 19.3392 10.7512 19.2454V11.4503Z" fill="#2BA977"/>
<path d="M23.4998 7.75404V19.0051C23.4998 22.8799 23.2096 24.7432 22.3577 26.3496C21.5626 27.8941 20.5152 28.868 18.3508 29.9437L13.8013 27.7998C15.9657 26.794 17.0131 25.9052 17.682 24.5488C18.3824 23.1618 18.6032 21.5554 18.6032 17.33V7.75404H23.4998Z" fill="#2BA977"/>
<path d="M18.1091 0H23.012V4.98174H18.1091V0Z" fill="#2BA977"/>
</g>
<defs>
<clipPath id="clip0_10_347">
<rect width="23.5583" height="30" fill="white" transform="translate(0.0163574)"/>
</clipPath>
</defs>
</svg>
