<svg width="21" height="30" viewBox="0 0 21 30" fill="none" xmlns="http://www.w3.org/2000/svg">
<g clip-path="url(#clip0_10_445)">
<path d="M10.7972 15C10.7972 12.2667 13.0129 10.0509 15.7463 10.0509C18.4795 10.0509 20.6954 12.2667 20.6954 15C20.6954 17.7333 18.4795 19.9491 15.7463 19.9491C13.0129 19.9491 10.7972 17.7333 10.7972 15Z" fill="#1ABCFE"/>
<path d="M0.898987 24.8982C0.898987 22.1649 3.11477 19.9491 5.84808 19.9491H10.7972V24.8982C10.7972 27.6315 8.58142 29.8473 5.84808 29.8473C3.11477 29.8473 0.898987 27.6315 0.898987 24.8982Z" fill="#0ACF83"/>
<path d="M10.7972 0.15274V10.0509H15.7463C18.4796 10.0509 20.6954 7.83514 20.6954 5.10183C20.6954 2.36853 18.4796 0.15274 15.7463 0.15274H10.7972Z" fill="#FF7262"/>
<path d="M0.898987 5.10184C0.898987 7.83514 3.11477 10.0509 5.84808 10.0509H10.7972V0.15274H5.84808C3.11477 0.15274 0.898987 2.36852 0.898987 5.10184Z" fill="#F24E1E"/>
<path d="M0.898987 15C0.898987 17.7333 3.11477 19.9491 5.84808 19.9491H10.7972V10.0509H5.84808C3.11477 10.0509 0.898987 12.2667 0.898987 15Z" fill="#A259FF"/>
</g>
<defs>
<clipPath id="clip0_10_445">
<rect width="20" height="30" fill="white" transform="translate(0.79718)"/>
</clipPath>
</defs>
</svg>
