<svg width="20" height="20" viewBox="0 0 20 20" fill="none" xmlns="http://www.w3.org/2000/svg">
<path fill-rule="evenodd" clip-rule="evenodd" d="M0.126068 1.43267C0.126068 0.641644 0.783584 0 1.59471 0H18.5313C19.3424 0 20 0.641644 20 1.43267V18.5673C20 19.3586 19.3424 20 18.5313 20H1.59471C0.783584 20 0.126068 19.3586 0.126068 18.5673V1.43267ZM6.15046 16.7421V7.71095H3.14869V16.7421H6.15046ZM4.64956 6.4779C5.69634 6.4779 6.34787 5.78441 6.34787 4.91775C6.32837 4.03159 5.69634 3.35734 4.66942 3.35734C3.6426 3.35734 2.97124 4.03159 2.97124 4.91775C2.97124 5.78441 3.62263 6.4779 4.62999 6.4779H4.64956ZM10.8132 16.7421H7.81145C7.81145 16.7421 7.85092 8.55837 7.81153 7.71095H10.8133V8.98959C11.2122 8.37421 11.9262 7.49903 13.5185 7.49903C15.4934 7.49903 16.9743 8.7898 16.9743 11.5638V16.7421H13.9728V11.9106C13.9728 10.6966 13.5383 9.86838 12.4521 9.86838C11.6229 9.86838 11.129 10.4269 10.912 10.9662C10.8327 11.1592 10.8132 11.4288 10.8132 11.6987V16.7421ZM10.8133 8.98959V9.0207H10.7932C10.7998 9.0104 10.8065 9.00003 10.8133 8.98959Z" fill="white"/>
</svg>
