<svg width="31" height="30" viewBox="0 0 31 30" fill="none" xmlns="http://www.w3.org/2000/svg">
<g clip-path="url(#clip0_10_354)">
<path d="M30.0074 17.9643C29.8329 17.436 29.376 17.0681 28.7851 16.9798C28.5065 16.9382 28.1874 16.9559 27.8097 17.0338C27.1516 17.1695 26.6633 17.2213 26.3069 17.2313C27.652 14.9602 28.7458 12.3705 29.3754 9.93262C30.3936 5.99068 29.8495 4.19489 29.2137 3.38262C27.5311 1.23262 25.0762 0.0776165 22.1146 0.0422756C20.5347 0.0229574 19.1478 0.334889 18.4243 0.559207C17.7507 0.440344 17.0263 0.37398 16.2663 0.361707C14.8417 0.33898 13.5829 0.649548 12.5074 1.28784C11.9119 1.08648 10.9562 0.802617 9.85259 0.62148C7.25691 0.195344 5.16486 0.527389 3.63463 1.60841C1.78168 2.91728 0.922702 5.19137 1.08157 8.3675C1.13202 9.37591 1.69611 12.4441 2.58429 15.3539C3.09475 17.0264 3.63907 18.4152 4.20213 19.4823C5.00066 20.9953 5.85509 21.8864 6.81429 22.2064C7.35191 22.3855 8.32873 22.5109 9.35611 21.6552C9.48634 21.813 9.66009 21.9697 9.89066 22.1152C10.1835 22.2999 10.5416 22.4508 10.8992 22.5402C12.1879 22.8624 13.3951 22.7818 14.425 22.3302C14.4313 22.5134 14.4362 22.6884 14.4403 22.8396C14.4471 23.0847 14.454 23.325 14.4629 23.5498C14.524 25.0695 14.6274 26.2513 14.9337 27.0781C14.9505 27.1235 14.9732 27.1928 14.997 27.2664C15.1499 27.7343 15.4054 28.5177 16.0557 29.1313C16.729 29.7668 17.5434 29.9617 18.2893 29.9617C18.6634 29.9617 19.0203 29.9126 19.3334 29.8456C20.4493 29.6064 21.7167 29.242 22.6335 27.9366C23.5003 26.7025 23.9217 24.8438 23.9979 21.915C24.0078 21.8322 24.0169 21.7531 24.0257 21.6777L24.0438 21.523L24.248 21.5409L24.3007 21.5444C25.4372 21.5963 26.827 21.3552 27.6805 20.9588C28.355 20.6458 30.5162 19.5048 30.0074 17.9643Z" fill="black"/>
<path d="M28.064 18.2639C24.6844 18.961 24.452 17.8168 24.452 17.8168C28.0202 12.5222 29.5119 5.80136 28.2247 4.15648C24.7129 -0.330457 18.634 1.79159 18.5325 1.84659L18.4999 1.8525C17.8321 1.71386 17.085 1.63136 16.2451 1.61761C14.716 1.59261 13.556 2.01852 12.6758 2.68602C12.6758 2.68602 1.83145 -1.78148 2.33588 8.30466C2.44316 10.4503 5.41134 24.5402 8.95157 20.2844C10.2455 18.7282 11.4959 17.4124 11.4959 17.4124C12.1168 17.8249 12.8602 18.0353 13.6395 17.9598L13.7001 17.9084C13.6812 18.1016 13.6899 18.2906 13.7243 18.5143C12.8122 19.5333 13.0803 19.7122 11.2571 20.0875C9.41225 20.4677 10.496 21.1445 11.2036 21.3216C12.0615 21.536 14.046 21.8399 15.3869 19.9627L15.3335 20.1769C15.6908 20.4632 15.9417 22.0386 15.8996 23.4669C15.8576 24.8951 15.8295 25.8757 16.111 26.6416C16.3927 27.4075 16.6733 29.1308 19.0701 28.6173C21.0727 28.1881 22.1105 27.0759 22.255 25.2207C22.3574 23.9018 22.5893 24.0968 22.6038 22.9176L22.7899 22.3594C23.0043 20.5716 22.824 19.9948 24.0577 20.2631L24.3577 20.2894C25.2657 20.3307 26.4543 20.1433 27.1519 19.8191C28.654 19.122 29.5449 17.9581 28.0637 18.2639H28.064Z" fill="#336791"/>
<path d="M13.3106 9.26421C13.006 9.22182 12.7302 9.26102 12.5907 9.36671C12.5123 9.42614 12.488 9.495 12.4814 9.54239C12.4639 9.66796 12.5518 9.80682 12.6059 9.87841C12.7589 10.0811 12.9823 10.2205 13.2034 10.2511C13.2355 10.2557 13.2674 10.2577 13.2991 10.2577C13.6678 10.2577 14.0032 9.97057 14.0327 9.75864C14.0697 9.49318 13.6843 9.31614 13.3106 9.26421ZM23.3997 9.27261C23.3706 9.06455 23.0003 9.00523 22.649 9.05409C22.2981 9.10296 21.9578 9.26136 21.9862 9.46989C22.009 9.63205 22.3018 9.90886 22.6484 9.90886C22.6777 9.90886 22.7073 9.90693 22.737 9.90273C22.9684 9.87068 23.1382 9.72375 23.2189 9.63909C23.3416 9.51 23.4127 9.36614 23.3997 9.27261Z" fill="white"/>
<path d="M29.1885 18.1847C29.0597 17.795 28.6449 17.6697 27.9558 17.8119C25.9098 18.2342 25.177 17.9417 24.9365 17.7645C26.5268 15.3418 27.8351 12.4132 28.5409 9.6808C28.8752 8.38648 29.0599 7.18443 29.075 6.20466C29.0917 5.12932 28.9085 4.33909 28.5308 3.85636C27.0078 1.91034 24.7726 0.866478 22.0669 0.837841C20.2068 0.816932 18.6352 1.29295 18.3306 1.42682C17.689 1.26727 16.9895 1.16932 16.2281 1.15682C14.8317 1.1342 13.6247 1.46852 12.6253 2.15C12.1913 1.98841 11.0694 1.6033 9.6975 1.38227C7.32568 1.00045 5.44091 1.28977 4.09591 2.24261C2.49102 3.37966 1.75012 5.41216 1.89364 8.28352C1.94193 9.24955 2.49239 12.2214 3.36102 15.0674C4.50443 18.8133 5.74739 20.9339 7.05512 21.3701C7.20818 21.4211 7.38466 21.4568 7.57932 21.4568C8.05637 21.4568 8.64125 21.2418 9.24978 20.5102C9.992 19.6198 10.7598 18.7511 11.5522 17.905C12.0663 18.1809 12.631 18.335 13.2086 18.3505C13.2098 18.3656 13.2113 18.3807 13.2126 18.3957C13.1132 18.5142 13.0158 18.6345 12.9206 18.7565C12.5203 19.2645 12.437 19.3703 11.1488 19.6356C10.7823 19.7112 9.80898 19.9118 9.79466 20.5941C9.77921 21.3395 10.9452 21.6526 11.0781 21.6858C11.541 21.8017 11.987 21.8589 12.4124 21.8589C13.4468 21.8589 14.3572 21.5189 15.0847 20.861C15.0623 23.5185 15.1731 26.1372 15.4922 26.935C15.7535 27.5882 16.3919 29.1844 18.4085 29.1843C18.7044 29.1843 19.0301 29.1499 19.3884 29.0731C21.4931 28.6219 22.407 27.6917 22.7606 25.6409C22.9498 24.5449 23.2744 21.9277 23.4272 20.5239C23.7494 20.6244 24.1643 20.6705 24.6128 20.6703C25.5483 20.6703 26.6277 20.4716 27.3047 20.1574C28.0651 19.8042 29.4374 18.9376 29.1885 18.1847ZM24.1765 8.6983C24.1695 9.11273 24.1125 9.48898 24.052 9.8817C23.9869 10.3041 23.9197 10.7408 23.9027 11.2709C23.886 11.7868 23.9505 12.3232 24.0127 12.8419C24.1386 13.8897 24.2678 14.9683 23.7677 16.0326C23.6847 15.8854 23.6107 15.7333 23.5461 15.577C23.484 15.4264 23.349 15.1843 23.162 14.8493C22.4349 13.5452 20.732 10.4914 21.6038 9.24523C21.8634 8.87432 22.5224 8.49295 24.1765 8.6983ZM22.1715 1.67705C24.5958 1.73057 26.5135 2.6375 27.8713 4.3725C28.9126 5.7033 27.7659 11.7586 24.4463 16.9826C24.4129 16.9402 24.3793 16.8979 24.3456 16.8557L24.3035 16.8032C25.1614 15.3865 24.9936 13.9848 24.8443 12.742C24.783 12.232 24.725 11.7503 24.7398 11.2978C24.755 10.8183 24.8184 10.4069 24.8798 10.0092C24.9551 9.51909 25.0318 9.01193 25.0107 8.41409C25.0265 8.35136 25.0328 8.27727 25.0245 8.18932C24.9706 7.61602 24.316 5.90023 22.9819 4.34727C22.2522 3.49784 21.188 2.54727 19.7349 1.90614C20.3599 1.77659 21.2145 1.6558 22.1715 1.67705ZM8.6058 19.9748C7.93534 20.7809 7.47239 20.6264 7.32012 20.5757C6.32807 20.2448 5.17693 18.148 4.16205 14.823C3.28387 11.9459 2.77068 9.05284 2.73 8.24159C2.60182 5.67591 3.22375 3.88784 4.57864 2.92693C6.78364 1.3633 10.4089 2.2992 11.8656 2.77386C11.8447 2.79455 11.8228 2.81386 11.8022 2.83489C9.41171 5.24898 9.46841 9.37352 9.47432 9.62568C9.47409 9.72295 9.48228 9.86068 9.49341 10.0501C9.53455 10.7439 9.61114 12.035 9.40659 13.4972C9.21659 14.8559 9.63546 16.1858 10.5556 17.1459C10.65 17.2443 10.7493 17.3379 10.853 17.4264C10.4434 17.865 9.5533 18.835 8.6058 19.9748ZM11.1602 16.5665C10.4186 15.7926 10.0818 14.7162 10.236 13.6131C10.4519 12.0685 10.3723 10.7233 10.3294 10.0006C10.3234 9.89943 10.3181 9.81079 10.315 9.74091C10.6642 9.43125 12.2825 8.5642 13.4366 8.82864C13.9632 8.9492 14.2841 9.30784 14.4175 9.92466C15.108 13.1182 14.5089 14.4492 14.0275 15.5189C13.9283 15.7392 13.8345 15.9475 13.7545 16.163L13.6925 16.3295C13.5355 16.7507 13.3893 17.1423 13.2988 17.5141C12.5103 17.5118 11.7434 17.175 11.1602 16.5664V16.5665ZM11.2813 20.8733C11.051 20.8158 10.844 20.7159 10.7225 20.6331C10.824 20.5853 11.0045 20.5203 11.3177 20.4558C12.8333 20.1439 13.0674 19.9236 13.5785 19.2747C13.6957 19.1258 13.8285 18.9572 14.0125 18.7517L14.0127 18.7515C14.2867 18.4447 14.412 18.4967 14.6393 18.591C14.8235 18.6672 15.003 18.8981 15.0757 19.1522C15.1101 19.2722 15.1488 19.4999 15.0223 19.6772C13.9545 21.1722 12.3986 21.153 11.2813 20.8733ZM19.213 28.2542C17.3589 28.6515 16.7024 27.7055 16.2698 26.624C15.9906 25.9258 15.8533 22.7774 15.9507 19.3005C15.9519 19.2542 15.9453 19.2095 15.9326 19.1675C15.9212 19.0845 15.9039 19.0024 15.8808 18.9218C15.736 18.4159 15.3832 17.9927 14.9599 17.8173C14.7917 17.7476 14.4831 17.6198 14.1122 17.7147C14.1913 17.3888 14.3284 17.0207 14.4772 16.6222L14.5395 16.4545C14.6098 16.2656 14.698 16.0698 14.7911 15.8625C15.2949 14.7434 15.9848 13.2106 15.236 9.74773C14.9556 8.45068 14.019 7.81727 12.5992 7.96443C11.7481 8.0525 10.9693 8.39591 10.5809 8.59284C10.4974 8.63511 10.421 8.67602 10.3497 8.7158C10.4581 7.40898 10.8676 4.9667 12.3997 3.42148C13.3643 2.44875 14.649 1.9683 16.2142 1.9942C19.2983 2.04466 21.276 3.62739 22.3922 4.94636C23.354 6.08284 23.8748 7.22773 24.0826 7.84523C22.5195 7.68625 21.4565 7.99477 20.9176 8.76523C19.7452 10.4411 21.559 13.6939 22.4307 15.2572C22.5906 15.5436 22.7285 15.7913 22.7719 15.8965C23.0558 16.5844 23.4233 17.0437 23.6916 17.379C23.7739 17.4817 23.8536 17.5814 23.9143 17.6684C23.4409 17.8049 22.5906 18.1202 22.6681 19.6965C22.6056 20.4874 22.1611 24.1903 21.9353 25.4986C21.6373 27.227 21.0013 27.8708 19.213 28.2543V28.2542ZM26.952 19.3978C26.468 19.6225 25.6578 19.791 24.8883 19.8273C24.0383 19.867 23.6056 19.732 23.5038 19.649C23.456 18.6667 23.8216 18.5641 24.2085 18.4555C24.2693 18.4384 24.3286 18.4217 24.3859 18.4017C24.4215 18.4307 24.4605 18.4594 24.5032 18.4876C25.1864 18.9385 26.4049 18.9872 28.1252 18.632L28.1441 18.6283C27.912 18.8452 27.515 19.1364 26.952 19.3978Z" fill="white"/>
</g>
<defs>
<clipPath id="clip0_10_354">
<rect width="30" height="30" fill="white" transform="translate(0.574646)"/>
</clipPath>
</defs>
</svg>
