<svg width="29" height="30" viewBox="0 0 29 30" fill="none" xmlns="http://www.w3.org/2000/svg">
<g clip-path="url(#clip0_10_314)">
<path d="M14.251 0.000236292C13.0728 0.00571078 11.9476 0.106194 10.9576 0.281376C8.04116 0.796618 7.51164 1.87506 7.51164 3.8639V6.49055H14.4036V7.3661H7.51164H4.92515C2.92216 7.3661 1.16829 8.57001 0.619698 10.8603C-0.0130939 13.4854 -0.0411617 15.1236 0.619698 17.8647C1.1096 19.905 2.27956 21.3588 4.28255 21.3588H6.65216V18.2101C6.65216 15.9353 8.62037 13.9287 10.9576 13.9287H17.8415C19.7578 13.9287 21.2875 12.3509 21.2875 10.4265V3.8639C21.2875 1.99615 19.7118 0.593097 17.8415 0.281376C16.6576 0.0842955 15.4292 -0.00523827 14.251 0.000236292ZM10.5239 2.1128C11.2357 2.1128 11.8171 2.70365 11.8171 3.43014C11.8171 4.15406 11.2357 4.73945 10.5239 4.73945C9.80941 4.73945 9.23061 4.15406 9.23061 3.43014C9.23061 2.70365 9.80941 2.1128 10.5239 2.1128Z" fill="url(#paint0_linear_10_314)"/>
<path d="M22.147 7.3661V10.4265C22.147 12.7992 20.1354 14.7962 17.8415 14.7962H10.9576C9.07198 14.7962 7.51163 16.4101 7.51163 18.2984V24.861C7.51163 26.7288 9.13577 27.8274 10.9576 28.3632C13.1392 29.0047 15.2312 29.1206 17.8415 28.3632C19.5766 27.8609 21.2875 26.8499 21.2875 24.861V22.2344H14.4036V21.3588H21.2875H24.7335C26.7364 21.3588 27.4828 19.9617 28.1794 17.8647C28.899 15.7058 28.8684 13.6297 28.1794 10.8603C27.6844 8.86628 26.739 7.3661 24.7335 7.3661H22.147ZM18.2753 23.9855C18.9897 23.9855 19.5685 24.5709 19.5685 25.2948C19.5685 26.0213 18.9897 26.6121 18.2753 26.6121C17.5634 26.6121 16.982 26.0213 16.982 25.2948C16.982 24.5709 17.5634 23.9855 18.2753 23.9855Z" fill="url(#paint1_linear_10_314)"/>
</g>
<defs>
<linearGradient id="paint0_linear_10_314" x1="0.134521" y1="-7.45836e-08" x2="16.0266" y2="13.5422" gradientUnits="userSpaceOnUse">
<stop stop-color="#5A9FD4"/>
<stop offset="1" stop-color="#306998"/>
</linearGradient>
<linearGradient id="paint1_linear_10_314" x1="18.1096" y1="25.074" x2="12.4082" y2="17.0845" gradientUnits="userSpaceOnUse">
<stop stop-color="#FFD43B"/>
<stop offset="1" stop-color="#FFE873"/>
</linearGradient>
<clipPath id="clip0_10_314">
<rect width="28.8462" height="30" fill="white"/>
</clipPath>
</defs>
</svg>
