<svg width="28" height="30" viewBox="0 0 28 30" fill="none" xmlns="http://www.w3.org/2000/svg">
<g clip-path="url(#clip0_10_329)">
<path d="M27.0164 15.0027C27.0164 13.2586 24.8453 11.6057 21.5167 10.5807C22.2848 7.16761 21.9434 4.45216 20.4391 3.58279C20.0924 3.37886 19.687 3.28227 19.2443 3.28227V4.479C19.4896 4.479 19.687 4.52729 19.8524 4.61852C20.5778 5.03711 20.8926 6.63096 20.6472 8.68096C20.5885 9.18541 20.4925 9.71669 20.3751 10.2587C19.3296 10.0011 18.1881 9.80255 16.9878 9.67376C16.2677 8.68096 15.5209 7.77939 14.7688 6.99051C16.5077 5.36447 18.1401 4.47363 19.2496 4.47363V3.2769C17.7827 3.2769 15.8623 4.32873 13.9206 6.15334C11.9789 4.33947 10.0585 3.29837 8.59161 3.29837V4.49509C9.69581 4.49509 11.3335 5.38057 13.0724 6.99588C12.3256 7.78475 11.5788 8.68096 10.8694 9.67376C9.66381 9.80255 8.52226 10.0011 7.47673 10.2641C7.35404 9.72742 7.26336 9.20687 7.19935 8.70779C6.94863 6.65779 7.25802 5.06394 7.97816 4.63999C8.13819 4.54339 8.34623 4.50046 8.59161 4.50046V3.30373C8.14352 3.30373 7.73811 3.40033 7.38605 3.60426C5.8871 4.47363 5.55104 7.18371 6.32452 10.5861C3.00656 11.6164 0.846161 13.2639 0.846161 15.0027C0.846161 16.7468 3.01723 18.3997 6.34585 19.4247C5.57771 22.8378 5.91911 25.5532 7.42339 26.4226C7.77012 26.6265 8.17553 26.7231 8.62361 26.7231C10.0906 26.7231 12.0109 25.6713 13.9526 23.8467C15.8943 25.6605 17.8147 26.7016 19.2816 26.7016C19.7297 26.7016 20.1351 26.605 20.4872 26.4011C21.9861 25.5317 22.3222 22.8217 21.5487 19.4193C24.856 18.3943 27.0164 16.7414 27.0164 15.0027ZM20.0711 11.4232C19.8737 12.1155 19.6283 12.8293 19.3509 13.543C19.1322 13.1137 18.9029 12.6844 18.6521 12.255C18.4068 11.8257 18.1454 11.4071 17.884 10.9993C18.6415 11.112 19.3723 11.2515 20.0711 11.4232ZM17.628 17.1385C17.2119 17.863 16.7851 18.5499 16.3424 19.1885C15.5476 19.2583 14.7421 19.2959 13.9313 19.2959C13.1258 19.2959 12.3203 19.2583 11.5308 19.1939C11.0881 18.5553 10.656 17.8738 10.2399 17.1546C9.8345 16.4516 9.46644 15.7379 9.13037 15.0188C9.4611 14.2997 9.83451 13.5806 10.2346 12.8776C10.6507 12.1531 11.0774 11.4662 11.5202 10.8276C12.315 10.7578 13.1205 10.7202 13.9313 10.7202C14.7368 10.7202 15.5422 10.7578 16.3317 10.8222C16.7745 11.4608 17.2065 12.1423 17.6226 12.8615C18.028 13.5645 18.3961 14.2782 18.7322 14.9973C18.3961 15.7164 18.028 16.4355 17.628 17.1385ZM19.3509 16.4409C19.639 17.16 19.8844 17.8791 20.0871 18.5768C19.3883 18.7485 18.6521 18.8934 17.8893 19.0061C18.1507 18.5929 18.4121 18.1689 18.6575 17.7342C18.9029 17.3049 19.1322 16.8702 19.3509 16.4409ZM13.9419 22.1669C13.4458 21.6518 12.9498 21.0775 12.459 20.4497C12.9391 20.4711 13.4298 20.4872 13.9259 20.4872C14.4274 20.4872 14.9235 20.4765 15.4089 20.4497C14.9288 21.0775 14.4327 21.6518 13.9419 22.1669ZM9.9732 19.0061C9.21572 18.8934 8.48492 18.7539 7.78612 18.5821C7.98349 17.8899 8.22887 17.1761 8.50626 16.4624C8.72496 16.8917 8.95434 17.321 9.20505 17.7503C9.45577 18.1796 9.71181 18.5982 9.9732 19.0061ZM13.9153 7.83842C14.4114 8.3536 14.9074 8.92782 15.3982 9.55569C14.9181 9.53423 14.4274 9.51813 13.9313 9.51813C13.4298 9.51813 12.9338 9.52886 12.4483 9.55569C12.9284 8.92782 13.4245 8.3536 13.9153 7.83842ZM9.96786 10.9993C9.70648 11.4125 9.4451 11.8365 9.19972 12.2711C8.95434 12.7005 8.72496 13.1298 8.50626 13.5591C8.2182 12.84 7.97282 12.1209 7.77012 11.4232C8.46892 11.2569 9.20505 11.112 9.96786 10.9993ZM5.1403 17.7181C3.25194 16.9078 2.03038 15.8452 2.03038 15.0027C2.03038 14.1601 3.25194 13.0922 5.1403 12.2872C5.59905 12.0887 6.10047 11.9116 6.6179 11.7452C6.92196 12.7971 7.32204 13.8918 7.81813 15.0134C7.32737 16.1296 6.93263 17.219 6.63391 18.2655C6.10581 18.0991 5.60438 17.9167 5.1403 17.7181ZM8.01016 25.3868C7.2847 24.9683 6.96997 23.3744 7.21535 21.3244C7.27403 20.82 7.37005 20.2887 7.4874 19.7467C8.53293 20.0042 9.67448 20.2028 10.8747 20.3316C11.5948 21.3244 12.3416 22.226 13.0938 23.0149C11.3548 24.6409 9.72248 25.5317 8.61294 25.5317C8.3729 25.5264 8.17019 25.4781 8.01016 25.3868ZM20.6632 21.2976C20.9139 23.3476 20.6045 24.9414 19.8844 25.3654C19.7243 25.462 19.5163 25.5049 19.2709 25.5049C18.1667 25.5049 16.5291 24.6194 14.7901 23.0041C15.5369 22.2152 16.2837 21.319 16.9932 20.3262C18.1987 20.1974 19.3403 19.9989 20.3858 19.7359C20.5085 20.2779 20.6045 20.7985 20.6632 21.2976ZM22.7169 17.7181C22.2582 17.9167 21.7567 18.0938 21.2393 18.2601C20.9352 17.2083 20.5352 16.1135 20.0391 14.9919C20.5298 13.8757 20.9246 12.7863 21.2233 11.7399C21.7514 11.9062 22.2528 12.0887 22.7222 12.2872C24.6106 13.0976 25.8322 14.1601 25.8322 15.0027C25.8268 15.8452 24.6053 16.9132 22.7169 17.7181Z" fill="#61DAFB"/>
<path d="M13.9259 17.4552C15.2723 17.4552 16.3637 16.3571 16.3637 15.0027C16.3637 13.6482 15.2723 12.5502 13.9259 12.5502C12.5796 12.5502 11.4881 13.6482 11.4881 15.0027C11.4881 16.3571 12.5796 17.4552 13.9259 17.4552Z" fill="#61DAFB"/>
</g>
<defs>
<clipPath id="clip0_10_329">
<rect width="26.1702" height="30" fill="white" transform="translate(0.846161)"/>
</clipPath>
</defs>
</svg>
