<svg width="31" height="30" viewBox="0 0 31 30" fill="none" xmlns="http://www.w3.org/2000/svg">
<g clip-path="url(#clip0_10_361)">
<path d="M13.362 29.9808C10.5539 29.7784 7.77839 29.0716 6.0762 28.1253C5.10663 27.5863 4.36796 26.9239 4.0781 26.3336L3.90564 25.9823V14.9646V3.94681L4.04211 3.66972C4.65195 2.43158 6.59824 1.31539 9.31515 0.645657C10.2374 0.4183 11.5688 0.191887 12.655 0.0777158C13.7642 -0.0388985 16.704 -0.0211565 17.8104 0.109001C20.7509 0.454472 23.2531 1.2279 24.7951 2.268C25.3898 2.6691 26 3.3109 26.2067 3.75267L26.384 4.13144L26.3688 15.1159L26.3536 26.1003L26.2113 26.3894C26.1331 26.5483 25.8967 26.8611 25.6861 27.0843C24.4039 28.4436 21.6536 29.449 18.0461 29.8774C17.3108 29.9648 14.1164 30.0352 13.362 29.9808ZM18.537 20.5401C18.5262 20.5119 18.1065 20.138 17.6042 19.709C17.1019 19.28 16.6693 18.9089 16.6428 18.8843C16.6164 18.8596 16.7092 18.7724 16.8491 18.6904C16.9889 18.6084 17.2569 18.3803 17.4446 18.1836C17.9933 17.6081 18.2523 16.8973 18.2523 15.9662C18.2523 15.0495 17.973 14.31 17.4137 13.7454C16.85 13.1764 16.2027 12.9319 15.2602 12.9319C13.8073 12.9319 12.6915 13.7796 12.3353 15.154C12.2128 15.6268 12.2135 16.5821 12.3366 17.0013C12.6578 18.0947 13.5325 18.8888 14.6212 19.0753C14.9896 19.1384 15.0395 19.1656 15.2906 19.4402C15.4399 19.6034 15.7462 19.9292 15.9713 20.1641L16.3806 20.5913H17.4687C18.0671 20.5913 18.5478 20.5682 18.537 20.5401ZM14.8057 17.4936C14.5437 17.357 14.4447 17.251 14.2953 16.9474C14.18 16.7128 14.1602 16.5794 14.1589 16.0251C14.1577 15.4618 14.1756 15.3401 14.296 15.0955C14.4931 14.6953 14.7647 14.5058 15.1848 14.4754C15.7696 14.433 16.1072 14.72 16.2841 15.4098C16.501 16.2554 16.2625 17.1545 15.7421 17.4529C15.469 17.6094 15.0618 17.6271 14.8057 17.4936ZM9.98291 19.0633C11.1237 18.847 11.7712 18.1836 11.7712 17.2312C11.7712 16.3863 11.3532 15.894 10.1977 15.3782C9.53624 15.0829 9.29666 14.8976 9.29666 14.681C9.29666 14.5015 9.52402 14.3049 9.78871 14.2554C10.0472 14.2072 10.7326 14.3262 11.1374 14.4897L11.4767 14.6268V13.8758V13.1247L11.1084 13.043C10.8808 12.9925 10.4026 12.9622 9.85638 12.9638C9.08269 12.9638 8.9312 12.9826 8.64004 13.0983C7.78956 13.4359 7.38598 14.011 7.39244 14.8762C7.39848 15.6861 7.82575 16.1913 8.88912 16.6458C9.51654 16.914 9.76802 17.1182 9.76802 17.3595C9.76802 17.8723 8.91361 17.9354 8.00901 17.4894C7.76127 17.3673 7.53869 17.2574 7.51439 17.2452C7.49009 17.233 7.47021 17.5839 7.47021 18.0249C7.47021 18.823 7.47106 18.8269 7.61557 18.8819C8.15976 19.0888 9.36254 19.181 9.98291 19.0633ZM23.0247 18.3229V17.6454H21.9936H20.9625V15.3181V12.9908H20.0493H19.1361V15.9956V19.0005H21.0804H23.0247V18.3229ZM16.6615 6.44932C18.4762 6.32344 19.8366 6.0858 21.0337 5.68556C22.2262 5.28681 22.9307 4.80433 23.0883 4.27839C23.149 4.07572 23.1446 3.99884 23.0598 3.77663C22.6793 2.78042 20.554 2.01502 17.3063 1.70469C15.917 1.57192 13.3905 1.61496 12.0659 1.79388C10.0448 2.06697 8.40448 2.57422 7.67515 3.15172C6.19979 4.32 7.75999 5.60496 11.3883 6.20976C12.9615 6.472 14.9997 6.5646 16.6615 6.44932Z" fill="#00BCF2"/>
</g>
<defs>
<clipPath id="clip0_10_361">
<rect width="30" height="30" fill="white" transform="translate(0.142853)"/>
</clipPath>
</defs>
</svg>
