<svg width="44" height="26" viewBox="0 0 44 26" fill="none" xmlns="http://www.w3.org/2000/svg">
<g clip-path="url(#clip0_33_658)">
<path d="M4.03678 0H39.4478C41.6887 0 43.5029 1.81405 43.5029 4.05515V17.5721C43.5029 19.813 41.6889 21.6272 39.4478 21.6272H26.7491L28.4921 25.8957L20.8265 21.6272H4.05479C1.81386 21.6272 -0.000358619 19.8132 -0.000358619 17.5721V4.05515C-0.018144 1.8319 1.79585 0 4.03678 0Z" fill="#7F54B3"/>
<path d="M2.47658 3.69608C2.72416 3.36008 3.09554 3.18323 3.59069 3.14787C4.49259 3.07713 5.00543 3.50155 5.12923 4.42114C5.67744 8.11721 6.2787 11.2472 6.91541 13.8116L10.7882 6.43724C11.1419 5.76523 11.584 5.41155 12.1145 5.37619C12.8927 5.32313 13.3701 5.81829 13.5647 6.86167C14.0068 9.21373 14.5727 11.212 15.2447 12.9096C15.7045 8.41776 16.4826 5.1817 17.5791 3.18326C17.8443 2.68811 18.2334 2.44053 18.7462 2.40515C19.153 2.36978 19.5243 2.49357 19.8603 2.75883C20.1963 3.0241 20.3732 3.3601 20.4085 3.76684C20.4262 4.08516 20.3732 4.35041 20.2317 4.61568C19.542 5.88895 18.9761 8.02881 18.5164 10.9996C18.0743 13.8822 17.9151 16.1281 18.0212 17.7374C18.0566 18.1795 17.9858 18.5685 17.809 18.9045C17.5968 19.2936 17.2785 19.5058 16.8717 19.5411C16.4119 19.5765 15.9345 19.3643 15.4747 18.8868C13.8301 17.2068 12.5214 14.6957 11.5665 11.3533C10.4171 13.6168 9.56826 15.3146 9.02005 16.4464C7.97669 18.4447 7.09248 19.4704 6.3497 19.5234C5.87222 19.5588 5.46548 19.152 5.11179 18.3032C4.2099 15.9865 3.23724 11.5124 2.19385 4.88089C2.12311 4.4211 2.22921 4.01436 2.47679 3.69604L2.47658 3.69608ZM40.4808 6.47247C39.8441 5.35836 38.9069 4.68628 37.6514 4.42102C37.3154 4.35028 36.997 4.31491 36.6964 4.31491C34.9987 4.31491 33.6194 5.19913 32.5407 6.96759C31.6211 8.47075 31.1613 10.1331 31.1613 11.9545C31.1613 13.3162 31.4442 14.4833 32.0101 15.456C32.6468 16.5701 33.584 17.2422 34.8395 17.5074C35.1755 17.5782 35.4939 17.6136 35.7945 17.6136C37.5098 17.6136 38.8892 16.7293 39.9502 14.9609C40.8698 13.44 41.3296 11.7777 41.3296 9.9563C41.3473 8.57692 41.0467 7.4275 40.4808 6.47247ZM38.2526 11.371C38.005 12.5382 37.5629 13.4046 36.9086 13.9883C36.3957 14.4481 35.9183 14.6427 35.4762 14.5542C35.0517 14.4658 34.698 14.0944 34.4328 13.4048C34.2206 12.8566 34.1145 12.3083 34.1145 11.7955C34.1145 11.3534 34.1498 10.9113 34.2383 10.5046C34.3974 9.7795 34.6981 9.07213 35.1755 8.40009C35.7591 7.53356 36.378 7.17987 37.0147 7.30367C37.4392 7.39209 37.7928 7.76346 38.0581 8.45314C38.2703 9.00135 38.3764 9.54956 38.3764 10.0624C38.3764 10.5222 38.341 10.9643 38.2526 11.371ZM29.4104 6.47247C28.7738 5.35836 27.8188 4.68628 26.581 4.42102C26.245 4.35028 25.9266 4.31491 25.626 4.31491C23.9283 4.31491 22.549 5.19913 21.4703 6.96759C20.5507 8.47075 20.0909 10.1331 20.0909 11.9545C20.0909 13.3162 20.3738 14.4833 20.9397 15.456C21.5764 16.5701 22.5136 17.2422 23.7691 17.5074C24.1051 17.5782 24.4235 17.6136 24.7241 17.6136C26.4394 17.6136 27.8188 16.7293 28.8798 14.9609C29.7994 13.44 30.2592 11.7777 30.2592 9.9563C30.2592 8.57692 29.9763 7.4275 29.4104 6.47247ZM27.1645 11.371C26.9169 12.5382 26.4748 13.4046 25.8205 13.9883C25.3077 14.4481 24.8302 14.6427 24.3881 14.5542C23.9637 14.4658 23.61 14.0944 23.3447 13.4048C23.1325 12.8566 23.0264 12.3083 23.0264 11.7955C23.0264 11.3534 23.0618 10.9113 23.1502 10.5046C23.3094 9.7795 23.61 9.07213 24.0875 8.40009C24.671 7.53356 25.29 7.17987 25.9267 7.30367C26.3511 7.39209 26.7048 7.76346 26.97 8.45314C27.1822 9.00135 27.2883 9.54956 27.2883 10.0624C27.306 10.5222 27.2529 10.9643 27.1645 11.371Z" fill="white"/>
</g>
<defs>
<clipPath id="clip0_33_658">
<rect width="43.5033" height="26" fill="white" transform="translate(-0.000732422)"/>
</clipPath>
</defs>
</svg>
