<svg width="30" height="30" viewBox="0 0 30 30" fill="none" xmlns="http://www.w3.org/2000/svg">
<g clip-path="url(#clip0_33_639)">
<path d="M2.13214 14.9996C2.13214 20.093 5.09216 24.4947 9.38441 26.5806L3.24622 9.76273C2.53223 11.3631 2.13214 13.1341 2.13214 14.9996Z" fill="#21759B"/>
<path d="M23.687 14.3503C23.687 12.76 23.1157 11.6586 22.6258 10.8014C21.9735 9.74144 21.3621 8.84381 21.3621 7.78385C21.3621 6.60097 22.2592 5.49987 23.5229 5.49987C23.58 5.49987 23.6341 5.50697 23.6897 5.51015C21.4003 3.41275 18.3502 2.13217 15.0001 2.13217C10.5046 2.13217 6.54953 4.43868 4.24866 7.93223C4.55056 7.94129 4.83508 7.94765 5.07675 7.94765C6.4227 7.94765 8.50614 7.78434 8.50614 7.78434C9.19981 7.74344 9.28159 8.76227 8.58866 8.8443C8.58866 8.8443 7.89157 8.92632 7.11587 8.96697L11.8019 22.9052L14.6179 14.4595L12.613 8.96648C11.9201 8.92583 11.2637 8.84381 11.2637 8.84381C10.5702 8.80316 10.6515 7.74296 11.345 7.78385C11.345 7.78385 13.47 7.94716 14.7344 7.94716C16.0801 7.94716 18.1638 7.78385 18.1638 7.78385C18.858 7.74296 18.9395 8.76178 18.2464 8.84381C18.2464 8.84381 17.5478 8.92583 16.7736 8.96648L21.4238 22.7991L22.7073 18.5101C23.2636 16.7302 23.687 15.4519 23.687 14.3503Z" fill="#21759B"/>
<path d="M15.2259 16.1252L11.3651 27.3441C12.5178 27.683 13.7369 27.8683 15.0001 27.8683C16.4986 27.8683 17.9357 27.6093 19.2733 27.1389C19.2388 27.0838 19.2074 27.0253 19.1817 26.9616L15.2259 16.1252Z" fill="#21759B"/>
<path d="M26.2912 8.82593C26.3466 9.23581 26.3779 9.67581 26.3779 10.1491C26.3779 11.4549 26.134 12.9228 25.3995 14.7582L21.4689 26.1225C25.2944 23.8917 27.8676 19.7471 27.8676 14.9999C27.8678 12.7627 27.2963 10.6589 26.2912 8.82593Z" fill="#21759B"/>
<path d="M15.0001 0C6.72927 0 0 6.72878 0 14.9996C0 23.2715 6.72927 30 15.0001 30C23.2707 30 30.001 23.2715 30.001 14.9996C30.0007 6.72878 23.2707 0 15.0001 0ZM15.0001 29.3125C7.10854 29.3125 0.687789 22.8917 0.687789 14.9996C0.687789 7.10805 7.1083 0.687789 15.0001 0.687789C22.8915 0.687789 29.3117 7.10805 29.3117 14.9996C29.3117 22.8917 22.8915 29.3125 15.0001 29.3125Z" fill="#21759B"/>
</g>
<defs>
<clipPath id="clip0_33_639">
<rect width="29.9993" height="30" fill="white"/>
</clipPath>
</defs>
</svg>
